<?xml version="1.0" standalone="no"?>
<!DOCTYPE svg PUBLIC "-//W3C//DTD SVG 20010904//EN"
 "http://www.w3.org/TR/2001/REC-SVG-20010904/DTD/svg10.dtd">
<svg version="1.0" xmlns="http://www.w3.org/2000/svg"
 width="752.000000pt" height="180.000000pt" viewBox="0 0 752.000000 180.000000"
 preserveAspectRatio="xMidYMid meet">

<g transform="translate(0.000000,180.000000) scale(0.100000,-0.100000)"
fill="#000000" stroke="none">
<path d="M428 1492 l-68 -69 0 -559 0 -559 67 -70 67 -70 266 0 266 0 67 70
c42 44 66 78 67 93 0 21 -163 326 -211 394 -11 14 -19 29 -19 32 0 3 19 6 42
6 38 0 47 6 115 73 l73 73 0 255 0 255 -69 72 -69 72 -263 0 -262 0 -69 -68z
m487 -138 c34 -14 45 -58 45 -189 0 -133 -10 -174 -49 -195 -31 -16 -277 -13
-310 5 -37 19 -41 35 -41 198 0 133 1 139 25 162 23 24 28 25 169 25 79 0 152
-3 161 -6z m-200 -647 c42 -44 205 -315 205 -341 0 -3 -81 -6 -180 -6 l-180 0
0 198 c0 109 3 202 7 206 5 4 28 5 53 1 38 -5 53 -14 95 -58z"/>
<path d="M1623 1235 c-36 -10 -61 -11 -85 -5 -18 6 -59 10 -90 10 l-58 0 0
-494 0 -494 63 -4 c103 -8 97 -16 97 144 l0 140 23 -6 c82 -24 139 -29 203
-17 110 20 165 58 217 149 l25 44 31 -45 c65 -95 176 -157 281 -157 99 0 280
53 280 82 0 18 -28 74 -44 87 -14 12 -24 10 -74 -12 -31 -14 -75 -29 -98 -32
-79 -13 -165 29 -201 99 -21 40 -43 125 -35 130 4 2 116 4 250 5 l242 1 0
-165 0 -165 85 0 85 0 0 259 c0 289 0 290 74 325 72 34 146 15 177 -46 17 -34
19 -60 19 -286 l0 -249 43 -6 c23 -3 60 -4 82 -3 l40 1 -1 276 c-2 258 -3 278
-23 316 -25 51 -93 110 -140 123 -88 24 -217 -2 -260 -53 -21 -26 -36 -20 -46
16 -10 31 -12 32 -65 32 l-55 0 -5 -85 c-4 -66 -7 -79 -14 -57 -12 39 -97 112
-154 132 -66 23 -167 30 -234 16 -70 -15 -162 -79 -198 -139 -14 -23 -28 -42
-32 -42 -4 0 -16 17 -27 38 -22 43 -73 97 -111 117 -31 16 -131 35 -179 34
-20 0 -59 -7 -88 -14z m156 -126 c129 -72 144 -325 25 -440 -29 -28 -42 -33
-94 -37 -78 -6 -146 13 -154 42 -3 11 -6 105 -6 207 0 180 1 186 23 207 49 46
144 56 206 21z m636 11 c42 -16 115 -110 115 -150 0 -14 -356 -14 -365 0 -7
12 34 87 61 112 50 45 129 61 189 38z"/>
<path d="M3524 1232 c-28 -10 -63 -28 -78 -40 -31 -23 -50 -21 -42 6 10 31 -6
39 -66 34 -33 -2 -58 -9 -58 -16 -1 -6 -2 -163 -3 -348 -3 -377 -9 -348 73
-348 86 0 80 -19 80 265 l0 253 25 30 c32 39 83 62 135 62 56 0 78 -14 101
-63 17 -38 19 -68 19 -289 l0 -246 76 -4 c42 -2 78 -1 80 1 2 2 5 63 5 135 1
80 4 117 8 96 12 -60 43 -113 98 -167 87 -85 214 -113 361 -78 34 8 81 24 103
36 l41 20 22 -20 c32 -31 90 -51 144 -51 58 0 146 25 184 51 33 24 55 24 67 0
12 -21 79 -51 115 -51 13 0 40 7 61 16 21 8 54 14 74 13 20 -1 42 -1 49 0 9 1
12 60 12 261 l0 260 33 36 c26 29 42 37 80 41 28 3 59 0 78 -7 54 -23 59 -50
59 -333 l0 -254 72 -6 c39 -3 75 -4 80 -1 4 3 8 115 8 248 0 134 3 258 6 275
14 66 133 107 192 65 44 -31 47 -47 52 -324 l5 -265 65 -1 c36 -1 72 0 80 2
13 3 15 42 12 286 -3 315 -4 319 -79 382 -87 74 -228 74 -334 0 l-40 -27 -32
30 c-70 68 -230 72 -306 8 -36 -31 -59 -32 -71 -1 -7 18 -19 25 -54 30 -25 4
-50 4 -56 1 -6 -4 -10 -91 -10 -228 0 -270 -9 -419 -24 -414 -7 2 -15 88 -21
248 -12 267 -16 287 -79 341 -50 44 -118 62 -226 63 -88 0 -101 -3 -160 -32
l-64 -31 -45 22 c-156 78 -358 51 -464 -63 -24 -25 -52 -67 -63 -93 -10 -27
-22 -48 -26 -48 -5 0 -8 18 -8 40 0 67 -56 151 -124 187 -46 24 -162 27 -222
5z m966 -126 c0 -6 7 -22 16 -34 14 -21 18 -22 33 -9 52 46 151 72 214 56 30
-8 45 -20 68 -56 40 -64 39 -83 -4 -76 -85 13 -245 -33 -314 -91 -35 -29 -83
-121 -83 -158 0 -75 -121 -130 -234 -106 -195 41 -209 404 -19 484 47 20 99
17 178 -11 l70 -25 24 30 c19 24 27 28 37 19 8 -6 14 -17 14 -23z m350 -252
c6 -14 10 -52 10 -84 0 -49 -4 -64 -27 -91 -32 -38 -95 -68 -140 -69 -47 0
-93 44 -99 95 -11 85 91 175 198 175 43 0 50 -3 58 -26z"/>
<path d="M6305 1238 c-16 -6 -44 -21 -62 -34 -40 -30 -49 -30 -65 3 -11 23
-20 27 -65 29 -48 2 -53 0 -54 -19 -4 -53 3 -683 8 -689 5 -9 115 -11 137 -2
14 5 16 39 16 269 l0 263 40 36 c35 31 47 36 91 36 42 0 55 -5 78 -28 l28 -27
5 -268 c4 -148 8 -270 10 -273 7 -6 120 -12 140 -6 17 4 18 24 18 266 0 143 4
267 8 274 5 6 23 23 42 37 64 47 148 27 184 -43 10 -20 15 -95 20 -277 l6
-250 77 -3 78 -3 -3 263 c-1 145 -7 279 -12 299 -14 51 -62 113 -103 132 -61
29 -145 32 -225 8 -38 -11 -75 -28 -82 -36 -18 -22 -40 -18 -71 11 -42 40
-172 57 -244 32z"/>
</g>
</svg>
